<svg xmlns="http://www.w3.org/2000/svg" viewBox="0 0 512 512" width="512" height="512">
  <defs>
    <linearGradient id="bg" x1="0%" y1="0%" x2="100%" y2="100%">
      <stop offset="0%" style="stop-color:#6750A4"/>
      <stop offset="100%" style="stop-color:#21005D"/>
    </linearGradient>
  </defs>
  <rect width="512" height="512" rx="100" fill="url(#bg)"/>
  <g transform="translate(256,256)">
    <path d="M-130,-110 C-130,-110 -10,-95 0,-80 L0,135 C-10,120 -130,128 -130,128 Z" fill="white" opacity="0.95"/>
    <path d="M130,-110 C130,-110 10,-95 0,-80 L0,135 C10,120 130,128 130,128 Z" fill="white" opacity="0.85"/>
    <line x1="0" y1="-88" x2="0" y2="135" stroke="#6750A4" stroke-width="6"/>
    <line x1="-105" y1="-40" x2="-18" y2="-48" stroke="#EADDFF" stroke-width="5" stroke-linecap="round"/>
    <line x1="-105" y1="-15" x2="-18" y2="-23" stroke="#EADDFF" stroke-width="5" stroke-linecap="round"/>
    <line x1="-105" y1="10" x2="-18" y2="2" stroke="#EADDFF" stroke-width="5" stroke-linecap="round"/>
    <line x1="-105" y1="35" x2="-18" y2="27" stroke="#EADDFF" stroke-width="5" stroke-linecap="round"/>
    <line x1="-105" y1="60" x2="-18" y2="52" stroke="#EADDFF" stroke-width="5" stroke-linecap="round"/>
    <line x1="-105" y1="85" x2="-18" y2="77" stroke="#EADDFF" stroke-width="5" stroke-linecap="round"/>
    <line x1="105" y1="-40" x2="18" y2="-48" stroke="#D0BCFF" stroke-width="5" stroke-linecap="round"/>
    <line x1="105" y1="-15" x2="18" y2="-23" stroke="#D0BCFF" stroke-width="5" stroke-linecap="round"/>
    <line x1="105" y1="10" x2="18" y2="2" stroke="#D0BCFF" stroke-width="5" stroke-linecap="round"/>
    <line x1="105" y1="35" x2="18" y2="27" stroke="#D0BCFF" stroke-width="5" stroke-linecap="round"/>
    <line x1="105" y1="60" x2="18" y2="52" stroke="#D0BCFF" stroke-width="5" stroke-linecap="round"/>
    <line x1="105" y1="85" x2="18" y2="77" stroke="#D0BCFF" stroke-width="5" stroke-linecap="round"/>
  </g>
</svg>
